@startuml
class JobRESTClient {
    + builds(): BuildRESTClient[0..*]
}

class BuildRESTClient {
    + project(): str
    + pipeline(): str
    + uuid(): str
    + result(): str
    + duration(): int
    + raw(): dict{str, any}
    + tests(): TestRESTClient[0..*]
}

class TestRESTClient {
    + kind(): TestKind
    + name(): str
    + result(): str
    + duration(): float
    + url(): str
    + raw(): dict{str, any}
}

enum TestKind {
    UNKNOWN,
    ANSIBLE,
    TEMPEST
}

class TestLookup {
    - finders: TestFinder[0..*]
    + search: TestRESTClient[0..*]
}

interface TestFinder {
    + find(build: BuildRESTClient): TestRESTClient[0..*]
}

class AnsibleTestFinder {
}

class TempestTestFinder {
}

note "Time measured in ms." as BUILD_TIME_NOTE
note "Time measured in seconds." as TEST_TIME_NOTE

JobRESTClient -- BuildRESTClient
BuildRESTClient --- TestRESTClient
(BuildRESTClient, TestRESTClient) .. TestLookup
TestLookup - TestFinder
TestFinder <|.. AnsibleTestFinder
TestFinder <|. TempestTestFinder
TestRESTClient -- TestKind

BuildRESTClient - BUILD_TIME_NOTE
TestRESTClient - TEST_TIME_NOTE

@enduml
